/* XPM */
static char *result[] = {
/* columns rows colors chars-per-pixel */
"150 50 195 2 ",
"   c black",
".  c #010101",
"X  c #020202",
"o  c gray1",
"O  c #040404",
"+  c gray2",
"@  c #060606",
"#  c #070707",
"$  c gray3",
"%  c #090909",
"&  c gray4",
"*  c #0B0B0B",
"=  c #0C0C0C",
"-  c gray5",
";  c #0E0E0E",
":  c gray6",
">  c #101010",
",  c #111111",
"<  c gray7",
"1  c #131313",
"2  c gray8",
"3  c #151515",
"4  c #161616",
"5  c gray9",
"6  c #181818",
"7  c #191919",
"8  c gray10",
"9  c #1B1B1B",
"0  c gray11",
"q  c #1D1D1D",
"w  c #1E1E1E",
"e  c gray12",
"r  c #202020",
"t  c gray13",
"y  c #222222",
"u  c #232323",
"i  c gray15",
"p  c #272727",
"a  c #282828",
"s  c #2A2A2A",
"d  c gray17",
"f  c #2D2D2D",
"g  c gray18",
"h  c #2F2F2F",
"j  c gray19",
"k  c #313131",
"l  c #323232",
"z  c gray20",
"x  c #343434",
"c  c gray21",
"v  c #373737",
"b  c #393939",
"n  c #3A3A3A",
"m  c gray23",
"M  c #3C3C3C",
"N  c gray24",
"B  c #3E3E3E",
"V  c #3F3F3F",
"C  c gray25",
"Z  c #414141",
"A  c gray26",
"S  c #434343",
"D  c #444444",
"F  c gray27",
"G  c #464646",
"H  c gray28",
"J  c #484848",
"K  c #494949",
"L  c gray29",
"P  c #4C4C4C",
"I  c #4E4E4E",
"U  c #505050",
"Y  c #515151",
"T  c gray32",
"R  c #535353",
"E  c gray33",
"W  c #555555",
"Q  c #565656",
"!  c gray34",
"~  c gray35",
"^  c #5A5A5A",
"/  c #5B5B5B",
"(  c #5D5D5D",
")  c #5F5F5F",
"_  c #606060",
"`  c gray38",
"'  c #626262",
"]  c gray39",
"[  c #646464",
"{  c #676767",
"}  c DimGray",
"|  c #6A6A6A",
" . c gray42",
".. c #6C6C6C",
"X. c #6D6D6D",
"o. c gray43",
"O. c #6F6F6F",
"+. c gray44",
"@. c #717171",
"#. c #727272",
"$. c gray45",
"%. c #747474",
"&. c #767676",
"*. c #777777",
"=. c gray47",
"-. c gray48",
";. c #7B7B7B",
":. c #7C7C7C",
">. c gray49",
",. c #7E7E7E",
"<. c gray50",
"1. c #808080",
"2. c #818181",
"3. c gray51",
"4. c #838383",
"5. c #848484",
"6. c gray52",
"7. c #868686",
"8. c gray53",
"9. c #888888",
"0. c gray54",
"q. c #8B8B8B",
"w. c gray55",
"e. c #8D8D8D",
"r. c #8E8E8E",
"t. c gray56",
"y. c #909090",
"u. c gray57",
"i. c #929292",
"p. c gray58",
"a. c #959595",
"s. c gray59",
"d. c #989898",
"f. c gray60",
"g. c #9A9A9A",
"h. c #9B9B9B",
"j. c gray61",
"k. c #9D9D9D",
"l. c gray62",
"z. c #9F9F9F",
"x. c #A0A0A0",
"c. c gray63",
"v. c #A2A2A2",
"b. c gray64",
"n. c #A4A4A4",
"m. c #A5A5A5",
"M. c gray65",
"N. c #A7A7A7",
"B. c gray66",
"V. c #AAAAAA",
"C. c gray67",
"Z. c #ACACAC",
"A. c gray68",
"S. c #AEAEAE",
"D. c #AFAFAF",
"F. c gray69",
"G. c #B1B1B1",
"H. c #B2B2B2",
"J. c gray70",
"K. c #B4B4B4",
"L. c gray71",
"P. c #B6B6B6",
"I. c #B7B7B7",
"U. c gray72",
"Y. c #B9B9B9",
"T. c gray73",
"R. c #BBBBBB",
"E. c #BCBCBC",
"W. c gray74",
"Q. c gray",
"!. c gray75",
"~. c #C0C0C0",
"^. c #C1C1C1",
"/. c gray76",
"(. c #C3C3C3",
"). c gray77",
"_. c #C5C5C5",
"`. c #C6C6C6",
"'. c gray78",
"]. c #C8C8C8",
"[. c gray79",
"{. c #CACACA",
"}. c #CBCBCB",
"|. c gray80",
" X c #CDCDCD",
".X c #CECECE",
"XX c gray81",
"oX c #D0D0D0",
"OX c gray82",
"+X c #D2D2D2",
"@X c LightGray",
"#X c gray83",
"$X c #D5D5D5",
"%X c gray84",
"&X c None",
/* pixels */
"XXoXOXOXOXOXOXOXOXOXOXOXOXOXOXOXOXOXOXOXOXOXOXOXOXOXOXOXOXOXOXOXOXOXOXOXOXOXOXOXOXOXOXOXOXOXOXOXOXOXOXOXOXOXOXOXOXOXOXOXOXOXOXOXOXOXOXOXOXOXOXOXOXOXOXOXOXOXOXOXOXOXOXOXOXOXOXOXOXOXOXOXOXOXOXOXOXOXOXOXOXOXOXOXOXOXOXOXOXOXOXOXOXOXOXOXOXOXOXOXOXOXOXOXOXOXOXOXOXOXOXOXOXOXOXOXOXOXOXOXOXOXOXoXoXoX&X&X&X&X",
"oX XR.U.U.U.U.U.U.U.U.U.U.U.U.U.U.U.U.U.U.U.U.U.U.U.U.U.U.U.U.U.U.U.U.U.U.U.U.U.U.U.U.U.U.U.U.U.U.U.U.U.U.U.U.U.U.U.U.U.U.U.U.U.U.U.U.U.U.U.U.Y.Y.Y.Y.Y.Y.Y.Y.Y.Y.Y.Y.Y.Y.Y.Y.Y.Y.Y.Y.Y.Y.Y.Y.Y.Y.Y.Y.Y.Y.Y.Y.U.U.U.U.U.U.U.U.U.U.U.U.U.U.U.U.U.U.U.U.U.U.U.U.U.U.U.U.U.U.U.U.U.U.U.U.U.U.U.Q. XOXoXXXoX&X&X",
"OXR.j 6 7 7 7 7 7 7 7 7 7 7 7 7 7 7 7 7 7 7 7 7 7 7 7 7 7 7 7 7 7 7 7 7 7 7 7 7 7 7 7 7 7 7 7 7 7 7 7 7 7 7 7 7 7 7 7 7 7 7 7 7 7 7 7 7 7 7 7 7 7 8 8 8 8 8 8 8 8 8 8 8 8 8 8 8 8 8 8 8 8 8 8 8 8 8 8 7 7 7 7 7 7 7 7 7 7 7 7 7 7 7 7 7 7 7 7 7 7 7 7 7 7 7 7 7 7 7 7 7 7 7 7 7 7 7 7 7 7 7 y I B.+XoXXXoX&X",
"OXU.7                                                                                                                                                                                                                                                                                           0 8..XoXXX&X",
"OXU.7                                                                                                                                                                                                                                                                                             * <.XXoXoX",
"OXU.7                                                                                                                                                                                                                                                                                               2 c.+XXX",
"OXU.7                                                                                                                                                                                                                                                                                                  .+XoX",
"OXU.7                                                                                                                                                                                                                                                                                                 B {.oX",
"OXU.7                                                                                                                                                                                                                                                                                                 q R.OX",
"OXU.7                                                                                                                                                                                                                                                                                                 7 U.OX",
"OXU.7                                                                                                                                                                                                                                                                                                 7 U.OX",
"OXU.7                                                                                                                                                                                                                                                                                                 7 U.OX",
"OXU.7                                                                                                                                                                                                                                                                                                 7 U.OX",
"OXU.7                                                                                   > 0 9 * O O .                                                                                                                                                                                                 7 U.OX",
"OXU.7                                                                               9 +.C.L.U.n.g.h.' <                                                 s N %               o 3 @ o             c +.@.@.| A q @ > 9 g ~ O.O.} G 6                                                                     7 U.OX",
"OXU.7                                                                             m V.R.g.m.[.%X[.[.XXl.g                 # J M N j .                 d A./.B               f b.0.<.>         f I.).J.U..X}.U.k.V.T.(.XX@X'..X.Xr.<                                                                   7 U.OX",
"OXU.7                                                                       O P *.U.).b.Z.Z.f.v.(.XXOX+XZ.t               0 P.i.'.g.O               X 9.m.G.1..             D  X+XoX)         ..@X'.Q.~. XoXOX+X+XOXoXoXoX[..X+XXXL                                                                   7 U.OX",
"OXU.7                                                                       R '.@XOXXXU.k.7.=.+.] ..I.+X+Xw.$             q L.3.|.M.*               , F.b.>.W.i             D |.oX+X#.        O.XX XXX@X+X+XOXoXoXXX X|.|. X^.3.[ 9                                                                   7 U.OX",
"OXU.7                                                                     h U.OXXXOXW.j.j.k.N._.~.o.n l.oX[.B             q L.8.}.R.q               w W._.3.(.F             D |.oX+X$.        y D A U +.@.O.v.].}. Xo.V A S f O                                                                       7 U.OX",
"OXU.7                                                                   1 l.+XXXOX/.A o O O & c f..X2.w 8.@X5.            q L.N.oXE.e               w I.M.S.E.H             F |.oX+Xu.X                     $.L.!. XA                                                                                 7 U.OX",
"OXU.7                                                                   ] XXoXoX'.) X           ; 5..X3.p S.P.5           w P.A.OX`.v               w P.:.W.].H             F |.oX+Xl.+                     $.K.Q.oX^                                                                                 7 U.OX",
"OXU.7                                                                 # z.+XoXXX#.X               - 5..X..#.}.J           w T.'.`.].C               w I.] T..XH             G |.oX+Xk.+                     $.L.Q.@X@.                                                                                7 U.OX",
"OXU.7                                                                 7 I.OXOXA.4                   : l.W.>..X1.          w E.OXC.'.G               w I.' T.`.z             G |.oX+Xl.+                     $.W.(.@X@.                                                                                7 U.OX",
"OXU.7                                                                 0 R.OX+X,.                      n Q.`.oXx.#         w E.OXP.`.Z               w I.' R.Q.w             G |.oX+XN.=                     #.+XXXOX .                                                                                7 U.OX",
"OXY.7                                                                 0 R.OX+X@.                      O f.@XOXU.9         q R.OXoXQ.u               e I.{ W.T.9             G  X'.D.R.q                     #.+XoX XJ                                                                                 7 U.OX",
"OXY.7                                                                 0 R.OX+X,.                        =.+XOXE.w         = N.+XOXE.w               e P.e.|.b.$             G .XT.r.W.w                     #.+XoX|.S                                                                                 7 U.OX",
"OXY.7                                                                 0 R.OX+XA.3                       $. X'.].n         + l.+XOXE.w               w P.A.+Xz.+             G .XT.e.W.w                     #.+XoX|.S                                                                                 7 U.OX",
"OXY.7                                                                 0 R.OX X}.I             X X       %.`.E.|.Z         + k.+XOXE.w               w T.'.OXS.<             G .XP.q.W.q                     #.+XoX(.j                                                                                 7 U.OX",
"OXY.7                                                                 0 T.OX`.'.g.&       X + ..+.=   X u.+XOXA.3         O f.+XOXE.q               e W.F.(.W.w             F XXz.2.W.q                     @.+XOXR.0                                                                                 7 U.OX",
"OXU.7                                                                 * n.+X'.c.].G       T p.T.XXr.w 0 H.+X+X<.          o s.+XoX_.b               m (. .R.W.w             D XXx.z.B.=                     8.+XOXR.0                                                                                 7 U.OX",
"OXU.7                                                                   =.+XXXw.I.N.8     i V.#XoX+Xz.8.XX}. X!           + k.+XoXoX`               [ E._ `.Y.9             a (.c.n.z.O                   O j.+X+XC.>                                                                                 7 U.OX",
"OXU.7                                                                   x _.@XD.%.{.6.%     m Z.OXoXoXXX}.E.A.7             8.@XXXOXB.d           y K.}.A.[.w.o             q Q.c.b.z.O                   O h.+X+Xh.O                                                                                 7 U.OX",
"OXU.7                                                                   # ,.}.oXs.k.}.9.k @   t n.oXoXoXXX{.Q               S '.OXXXOXP.1.E U D K p.+X!.z.Q.M               0 W.c.v.l.O                   O h.+X+Xn.*                                                                                 7 U.OX",
"OXU.7                                                                     - M >.]./.oX+X^.f.%.;.U. XOXOXoXXXZ.E %           O %. XOXXXOX+X`.V.Y.P.B.Z.'.U.) X               * N.n.N.z.O                   # l.+XOXY.9                                                                                 7 U.OX",
"OXU.7                                                                         O Y N.W.{.+X$X$X$XOXE.g.C.OXOX+X}.a.s           % X.^.+X+X.X XR.M._ v f.(.G .                 O d.m.Q.&.                    7 I.+X@XR.9                                                                                 7 U.OX",
"OXU.7                                                                             : r V >.&.O.+.~ g $ 8 :./.OXoXoX-.            o l  .O.I ( x.).).K.l.A o                   . g g m -                     9 H.,.y.G.6                                                                                 7 U.OX",
"OXU.7                                                                                   X               o V I.@X4.6                         & g S j ;                                                     $ x = - g O                                                                                 7 U.OX",
"OXU.7                                                                                                       m A./                                                                                                                                                                                     7 U.OX",
"OXU.7                                                                                                       . 1 %                                                                                                                                                                                     7 U.OX",
"OXU.7                                                                                                                                                                                                                                                                                                 7 U.OX",
"OXU.7                                                                                                                                                                                                                                                                                                 7 U.OX",
"OXY.8                                                                                                                                                                                                                                                                                                 7 U.OX",
"oX`.z                                                                                                                                                                                                                                                                                                 7 U.OX",
"oXXX`                                                                                                                                                                                                                                                                                                 7 U.OX",
"XX+XV.2                                                                                                                                                                                                                                                                                               7 U.OX",
"oXoXXX .X                                                                                                                                                                                                                                                                                             7 U.OX",
"oXXXoX`.~ O                                                                                                                                                                                                                                                                                           7 U.OX",
"&XoXXXOX`.t.W d 7 7 7 7 7 7 7 7 7 7 7 7 7 7 7 7 7 7 7 7 7 7 7 7 7 7 7 7 7 7 7 7 7 7 7 7 7 7 7 7 7 7 7 7 7 7 7 7 7 7 7 7 7 7 7 7 7 7 7 7 7 7 7 7 7 7 8 8 8 8 8 8 8 8 8 8 7 7 7 7 7 7 7 7 7 7 7 7 7 7 7 7 7 7 7 7 7 7 7 7 7 7 7 7 7 7 7 7 7 7 7 7 7 7 7 7 7 7 7 7 7 7 7 7 7 7 7 7 7 7 7 7 7 7 7 7 7 7 6 j R.OX",
"&X&XoXXXoX@XXX/.U.U.U.U.U.U.Y.U.U.U.U.U.U.U.Y.Y.Y.Y.U.U.U.U.U.U.U.U.U.U.U.U.U.U.U.U.U.U.U.U.U.U.U.U.U.U.U.U.U.U.U.U.U.U.U.U.U.U.U.U.U.U.U.Y.Y.Y.Y.Y.Y.Y.Y.Y.Y.Y.Y.Y.Y.Y.Y.Y.Y.Y.Y.Y.Y.Y.Y.Y.U.Y.Y.U.U.Y.U.U.U.U.U.U.U.U.U.U.U.U.U.U.U.U.U.U.U.Y.Y.Y.Y.Y.Y.Y.U.U.U.U.U.U.U.U.U.U.U.U.U.U.U.U.U.U.U.U.U.R. XoX",
"&X&X&XoXoXXXoXoXOXOXOXOXOXOXOXOXOXOXOXOXOXOXOXOXOXOXOXOXOXOXOXOXOXOXOXOXOXOXOXOXOXOXOXOXOXOXOXOXOXOXOXOXOXOXOXOXOXOXOXOXOXOXOXOXOXOXOXOXOXOXOXOXOXOXOXOXOXOXOXOXOXOXOXOXOXOXOXOXOXOXOXOXOXOXOXOXOXOXOXOXOXOXOXOXOXOXOXOXOXOXOXOXOXOXOXOXOXOXOXOXOXOXOXOXOXOXOXOXOXOXOXOXOXOXOXOXOXOXOXOXOXOXOXOXOXOXOXOXoXXX"
};
