/* XPM */
static char *result[] = {
/* columns rows colors chars-per-pixel */
"150 50 207 2 ",
"   c black",
".  c #010101",
"X  c #020202",
"o  c gray1",
"O  c #040404",
"+  c gray2",
"@  c #060606",
"#  c #070707",
"$  c gray3",
"%  c #090909",
"&  c gray4",
"*  c #0B0B0B",
"=  c #0C0C0C",
"-  c gray5",
";  c #0E0E0E",
":  c gray6",
">  c #101010",
",  c #111111",
"<  c gray7",
"1  c #131313",
"2  c gray8",
"3  c #151515",
"4  c #161616",
"5  c #181818",
"6  c #191919",
"7  c gray10",
"8  c #1B1B1B",
"9  c gray11",
"0  c #1D1D1D",
"q  c #1E1E1E",
"w  c gray12",
"e  c #202020",
"r  c gray13",
"t  c #222222",
"y  c #232323",
"u  c gray14",
"i  c #252525",
"p  c #272727",
"a  c #282828",
"s  c gray17",
"d  c #2C2C2C",
"f  c #2D2D2D",
"g  c gray18",
"h  c #2F2F2F",
"j  c gray19",
"k  c #313131",
"l  c #323232",
"z  c gray20",
"x  c #343434",
"c  c #353535",
"v  c gray21",
"b  c #373737",
"n  c gray22",
"m  c #393939",
"M  c #3A3A3A",
"N  c gray23",
"B  c #3C3C3C",
"V  c gray24",
"C  c #3E3E3E",
"Z  c #3F3F3F",
"A  c gray25",
"S  c #414141",
"D  c gray26",
"F  c #434343",
"G  c #444444",
"H  c gray27",
"J  c #464646",
"K  c gray28",
"L  c #484848",
"P  c #494949",
"I  c gray29",
"U  c #4B4B4B",
"Y  c gray30",
"T  c #4E4E4E",
"R  c gray31",
"E  c #505050",
"W  c #515151",
"Q  c gray32",
"!  c #535353",
"~  c gray33",
"^  c #555555",
"/  c gray34",
"(  c #585858",
")  c gray35",
"_  c #5A5A5A",
"`  c #5B5B5B",
"'  c gray36",
"]  c #5D5D5D",
"[  c #5F5F5F",
"{  c #606060",
"}  c gray38",
"|  c #626262",
" . c gray39",
".. c #646464",
"X. c #676767",
"o. c DimGray",
"O. c #6A6A6A",
"+. c gray42",
"@. c #6C6C6C",
"#. c #6D6D6D",
"$. c gray43",
"%. c #6F6F6F",
"&. c gray44",
"*. c #717171",
"=. c #727272",
"-. c gray45",
";. c #747474",
":. c gray46",
">. c #767676",
",. c #777777",
"<. c gray47",
"1. c #797979",
"2. c gray48",
"3. c #7B7B7B",
"4. c #7C7C7C",
"5. c gray49",
"6. c #7E7E7E",
"7. c gray50",
"8. c #808080",
"9. c #818181",
"0. c gray51",
"q. c #838383",
"w. c #848484",
"e. c gray52",
"r. c #868686",
"t. c gray53",
"y. c #888888",
"u. c #898989",
"i. c gray54",
"p. c #8B8B8B",
"a. c gray55",
"s. c #8D8D8D",
"d. c #8E8E8E",
"f. c gray56",
"g. c #909090",
"h. c gray57",
"j. c #929292",
"k. c #939393",
"l. c gray58",
"z. c #959595",
"x. c gray59",
"c. c #979797",
"v. c #989898",
"b. c gray60",
"n. c #9A9A9A",
"m. c #9B9B9B",
"M. c gray61",
"N. c #9D9D9D",
"B. c gray62",
"V. c #9F9F9F",
"C. c #A0A0A0",
"Z. c gray63",
"A. c #A2A2A2",
"S. c gray64",
"D. c #A4A4A4",
"F. c #A5A5A5",
"G. c gray65",
"H. c #A7A7A7",
"J. c gray66",
"K. c #A9A9A9",
"L. c #AAAAAA",
"P. c gray67",
"I. c #ACACAC",
"U. c gray68",
"Y. c #AEAEAE",
"T. c #AFAFAF",
"R. c gray69",
"E. c #B1B1B1",
"W. c #B2B2B2",
"Q. c gray70",
"!. c #B4B4B4",
"~. c gray71",
"^. c #B6B6B6",
"/. c #B7B7B7",
"(. c gray72",
"). c #B9B9B9",
"_. c gray73",
"`. c #BBBBBB",
"'. c #BCBCBC",
"]. c gray74",
"[. c gray",
"{. c gray75",
"}. c #C0C0C0",
"|. c #C1C1C1",
" X c gray76",
".X c #C3C3C3",
"XX c gray77",
"oX c #C5C5C5",
"OX c #C6C6C6",
"+X c gray78",
"@X c #C8C8C8",
"#X c gray79",
"$X c #CACACA",
"%X c #CBCBCB",
"&X c gray80",
"*X c #CDCDCD",
"=X c #CECECE",
"-X c gray81",
";X c #D0D0D0",
":X c gray82",
">X c #D2D2D2",
",X c LightGray",
"<X c gray83",
"1X c #D5D5D5",
"2X c gray84",
"3X c #D7D7D7",
"4X c None",
/* pixels */
"-X;X:X:X:X:X:X:X:X:X:X:X:X:X:X:X:X:X:X:X:X:X:X:X:X:X:X:X:X:X:X:X:X:X:X:X:X:X:X:X:X:X:X:X:X:X:X:X:X:X:X:X:X:X:X:X:X:X:X:X:X:X:X:X:X:X:X:X:X:X:X:X:X:X:X:X:X:X:X:X:X:X:X:X:X:X:X:X:X:X:X:X:X:X:X:X:X:X:X:X:X:X:X:X:X:X:X:X:X:X:X:X:X:X:X:X:X:X:X:X:X:X:X:X:X:X:X:X:X:X:X:X:X:X:X:X:X:X:X:X:X:X:X;X;X;X4X4X4X4X",
";X*X`.(.(.(.(.(.(.(.(.(.(.(.(.(.(.(.(.(.(.(.(.(.(.(.(.(.(.(.(.(.(.(.(.(.(.(.(.(.(.(.(.(.(.(.(.(.(.(.(.(.(.(.(.(.(.(.(.(.(.(.(.(.(.(.(.(.(.(.(.).).).).).).).).).).).).).).).).).).).).).).).).).).).).).).).).(.(.(.(.(.(.(.(.(.(.(.(.(.(.(.(.(.(.(.(.(.(.(.(.(.(.(.(.(.(.(.(.(.(.(.(.(.(.(.[.*X:X;X-X;X4X4X",
":X`.j 5 6 6 6 6 6 6 6 6 6 6 6 6 6 6 6 6 6 6 6 6 6 6 6 6 6 6 6 6 6 6 6 6 6 6 6 6 6 6 6 6 6 6 6 6 6 6 6 6 6 6 6 6 6 6 6 6 6 6 6 6 6 6 6 6 6 6 6 6 6 7 7 7 7 7 7 7 7 7 7 7 7 7 7 7 7 7 7 7 7 7 7 7 7 7 7 6 6 6 6 6 6 6 6 6 6 6 6 6 6 6 6 6 6 6 6 6 6 6 6 6 6 6 6 6 6 6 6 6 6 6 6 6 6 6 6 6 6 6 t T J.>X;X-X;X4X",
":X(.6                                                                                                                                                                                                                                                                                           9 t.=X;X-X4X",
":X(.6                                                                                                                                                                                                                                                                                             * 7.-X;X;X",
":X(.6                                                                                                                                                                                                                                                                                               2 Z.>X-X",
":X(.6                                                                                                                                                                                                                                                                                                 +.>X;X",
":X(.6                                                                                                                                                                                                                                                                                                 C $X;X",
":X(.6                                                                                                                                                                                                                                                                                                 0 `.:X",
":X(.6                                                                                                                                                                                                                                                                                                 6 (.:X",
":X(.6                                                                                                                                                                                                                                                                                                 6 (.:X",
":X(.6                                                                                                                                                                                                                                                                                                 6 (.:X",
":X(.6                                                                                                                                               X X                                                                                                                                               6 (.:X",
":X(.6                                                                                                                                             8 4.4.-                                                                                                                                             6 (.:X",
":X(.6                                                   q ( =.=.=.=.&.U 5 .               O x D D V e 8 8 h F D D D F F G d X                 $ 5 h.^.'.r                           o O O # 7 b C e 8 >                 1 V S S S g : O O O O O O O o                                                 6 (.:X",
":X(.6                                                 N W.}.B.n.n.m.!.@X~.| =             ' XX*X&X$X'._._..X&X&X*X&XXX/.{._.l               o <.a.(.q.OXY                         B i.M.n.V.).oX+X_.].I.,.z & .       ; c.&X&X*X-XOXI.M.N.M.m.m.m.m.f.( q .                                           6 (.:X",
":X(.6                                               M /.,XI.>.;.X.J C ~ D.-X7.$         X 6.-X:X:X&X$X:X:X;X;X*XoX*X Xv.>.{.%.              i [.S.~.`.;Xg.#                     o c.<X>X,XOX3.G C Y q.U.*X.XF.@.O     ; M.;X$X'.Z.d.>.>.a.P.}.|.}.'.'.$X!.b                                           6 (.:X",
":X(.6                                             e I.,X=X^.'.<X,X*X{.M.>.T.%X^           V $X|.~.&X-X;X;X;X;X&X).}.:X>X%X%X}               } -X;X X#X:XXXl                     O M.>X;X;Xx.I O.*.&.*. .z.*X,X Xf       P #Xg.4.4.9.b.v.m.S.R.Q.Q.z.p._.2X$.                                          6 (.:X",
":X(.6                                             >.>X=X6.;.C.3.r.W.OX<X&X_.=XJ.>         q Q.oX].$X+XOX#X X-X-X>X>X;XT.).j.>             3 P.:X:XU.'.:X:X#.                    O M.>X;X$X/.(.Y.B.V.~.(.[.-X;X:XO.      x !.^.!.Z.M.g.].R.,X-Xd.d.C.(.W.e.z                                           6 (.:X",
":X(.6                                           O m.,X%Xl.V.i   X 2 x d.=X;X:X%XC         X f H H G v 0.I.T oXE.&.-.@.r 6 >               R *X;X:X1.k.>X>XL.,                   + N.>X:XS.r 0 , O + 4 9 h y.-X>XY.2     O 6 9 6 #   A ~.N.>X{.p   # 6 3 X                                             6 (.:X",
":X(.6                                           X f.,X;X,X<.          - l.%Xz.x.k                     X._.m ].H.*                       . i.>X;X#XC Q =X;X$XU                   , U.*X(.N.+               2 A.,X`.0                 G ].^.>X_.9                                                       6 (.:X",
":X(.6                                             *.$X%X>Xe..           P d.u X                       K ^.~ ]._.0                       u ).:X>XL.; l oX;X:XM.&                 q '.%XU.N.+                 -.,XOX) X               D $X&X:X_.9                                                       6 (.:X",
":X(.6                                             &.$X+X;Xn.X.z +       . o                           J ~.{ H.^.q                     O 0.;X;X:X#.  , L.;X[.@XP                 q '.%XI.F.;             o z H.,X|.T.7               D &X;X:X_.9                                                       6 (.:X",
":X(.6                                             H #X$X-X;X:X Xx.#.G e &                             J ^.2.f.~.q                     K +X;X:X).u     $.>XQ.XXq.                q ].}.x.XXz.! 0 = O $ v ,..X,X|.OXl.%               D &X;X>X_.9                                                       6 (.:X",
":X).6                                             $ 8.;X>X:X:X@XC..X%X].v.J %                         J ).g.;.^.q                   & M.>X;X:X:.      z oX X!.^.9               q [.^.S.>X>X%X`.G.M.Z.OX*XQ.5.s.W.j                 D *X XXX`.9                                                       6 (.:X",
":X).6                                               ; [ =.o.m.&Xi.5.}.>X>X$X9.6                       J ].m.| /.q                   I #X;X:XT.0       * A.-XI.$X{               l +XS.A.,X:X:X>X,X,X:XY.| [ t.B.V                   D -XC.Z.].9                                                       6 (.:X",
":X).6                                               . .     3 q.[..X@X&X;X:X-XL.r                     H {.n.[ /.q                 & M.>X;X&X[ u B i D H x.,X_.}.F.*             J -XA.A.|.!.'.`.'.%X+XH.P.M.E 3                     D -XA.D.].9                                                       6 (.:X",
":X).6                                             h y.;.o     $ e C F D *.`.:X:Xo.                    G *Xn.T (.q                 A @X;X;X|.d.~.W.R.+X#XOX%X&X).XXn             H -XN.S.y.4 q 0 w n.T.z.1Xy.o                       D =XD._.'.9                                                       6 (.:X",
":X).6                                           . 8.3X!.3             . { u.H.<Xc.o                   G -Xn.+.Q.4               o y.:X&X-X;X=XJ.o.) ^ I Z k.>XK.XXi.o           H -X4.B.w.        X.+X2..X@X~                       D *Xu.).'.9                                                       6 (.:X",
":X(.6                                           d ].=XoXc               p.C./ ;XF.*                   G -Xn.2.C.+               h |.;X$X@X#X,X:X#X[.U.N.B.).:X.X@X{.p           H -X,.N.i.        r ~.W.T.,XL.2                     L =Xy.).'.9                                                       6 (.:X",
":X(.6                                           F `.J.,X<.              ,.!.' *X_.9                   F -Xb.1.V.O               X.:X#X&Xu.%.-.$.I ' p.Z.C.D.$X;XY.#X+.          G -X>.N.b.o         ] %X[.;X=X..                    O.,Xy.).'.9                                                       6 (.:X",
":X(.6                                           C `.&.#XD.=           b _.p.,.>X$Xn                   F -XA.6.B.O             + z.&X^.U.3           X + O : A.,XF.W.I.4         F -X:.M.0.          1 B.>X-X:X`.h                   &.;X0. XQ.3                                                       6 (.:X",
":X(.6                                           6 !.2.x.*X{ @ O o o l G.<XT.}.@Xl.a                   h oX(.p.N.O             6 ).W.[.-.                    { ;XOXf.#X%.        F -X:.M.g..           h `.:X-X>Xl.%                 %.&X6.&Xf.X                                                       6 (.:X",
":X(.6                                             @.).o.!.+XN.m.z.e.}.:XJ.n.>XG.<                     8 '._.h.N.O             0 (.y.].M                     r /.:XV.}.).p       F -X:.m.k.X             @.-X;X;X%X{ X               %.$X1.&X&.                                                        6 (.:X",
":X(.6                                             ; j.Y.m.=XD..X*X&X XoXI.|.(.N                       # j.}.`.N.O             ; ' g.U.,                       *.>XOX`.<X;.      C -X<.C.M.O             = a.>X=X|.@X_               $.~.` *X}                                                         6 (.:X",
":X(.6                                               < ~ 8..Xm.f.P.P.C.oX,XW.N                           W b.z.Y                   r.c.o                       7 D.^.H O.l       5 a.' A.;.                q D.,X7.b.w.X             r l 0 } 7                                                         6 (.:X",
":X(.6                                                   O m O.p.n.b.n.e.{ e                             X + O                     t a                           y c O             o O 5 %                   S /.` = :                                                                                 6 (.:X",
":X(.6                                                         o O O O X                                                                                                                                     O 5 $                                                                                     6 (.:X",
":X(.6                                                                                                                                                                                                                                                                                                 6 (.:X",
":X(.6                                                                                                                                                                                                                                                                                                 6 (.:X",
":X(.6                                                                                                                                                                                                                                                                                                 6 (.:X",
":X).7                                                                                                                                                                                                                                                                                                 6 (.:X",
";XOXz                                                                                                                                                                                                                                                                                                 6 (.:X",
";X-X}                                                                                                                                                                                                                                                                                                 6 (.:X",
"-X>XL.2                                                                                                                                                                                                                                                                                               6 (.:X",
";X;X-X+.X                                                                                                                                                                                                                                                                                             6 (.:X",
";X-X;XOX) O                                                                                                                                                                                                                                                                                           6 (.:X",
"4X;X-X:XOXf.^ s 6 6 6 6 6 6 6 6 6 6 6 6 6 6 6 6 6 6 6 6 6 6 6 6 6 6 6 6 6 6 6 6 6 6 6 6 6 6 6 6 6 6 6 6 6 6 6 6 6 6 6 6 6 6 6 6 6 6 6 6 6 6 6 6 6 6 7 7 7 7 7 7 7 7 7 7 6 6 6 6 6 6 6 6 6 6 6 6 6 6 6 6 6 6 6 6 6 6 6 6 6 6 6 6 6 6 6 6 6 6 6 6 6 6 6 6 6 6 6 6 6 6 6 6 6 6 6 6 6 6 6 6 6 6 6 6 6 6 5 j `.:X",
"4X4X;X-X;X,X-X X(.(.(.(.(.(.).(.(.(.(.(.(.(.).).).).(.(.(.(.(.(.(.(.(.(.(.(.(.(.(.(.(.(.(.(.(.(.(.(.(.(.(.(.(.(.(.(.(.(.(.(.(.(.(.(.(.(.(.).).).).).).).).).).).).).).).).).).).).).).).).).(.).).(.(.).(.(.(.(.(.(.(.(.(.(.(.(.(.(.(.(.(.(.(.).).).).).).).(.(.(.(.(.(.(.(.(.(.(.(.(.(.(.(.(.(.(.(.(.`.*X;X",
"4X4X4X;X;X-X;X;X:X:X:X:X:X:X:X:X:X:X:X:X:X:X:X:X:X:X:X:X:X:X:X:X:X:X:X:X:X:X:X:X:X:X:X:X:X:X:X:X:X:X:X:X:X:X:X:X:X:X:X:X:X:X:X:X:X:X:X:X:X:X:X:X:X:X:X:X:X:X:X:X:X:X:X:X:X:X:X:X:X:X:X:X:X:X:X:X:X:X:X:X:X:X:X:X:X:X:X:X:X:X:X:X:X:X:X:X:X:X:X:X:X:X:X:X:X:X:X:X:X:X:X:X:X:X:X:X:X:X:X:X:X:X:X:X:X:X:X:X;X-X"
};
