/* XPM */
static char *result[] = {
/* columns rows colors chars-per-pixel */
"40 40 41 1 ",
"  c black",
". c #010101",
"X c #020202",
"o c gray1",
"O c #040404",
"+ c gray2",
"@ c #060606",
"# c #070707",
"$ c gray3",
"% c #090909",
"& c gray4",
"* c #0B0B0B",
"= c #0C0C0C",
"- c gray5",
"; c #0E0E0E",
": c gray6",
"> c #101010",
", c #111111",
"< c gray7",
"1 c #131313",
"2 c gray8",
"3 c #151515",
"4 c #161616",
"5 c gray9",
"6 c #181818",
"7 c #191919",
"8 c gray10",
"9 c #1B1B1B",
"0 c gray11",
"q c #1D1D1D",
"w c #1E1E1E",
"e c gray12",
"r c #202020",
"t c gray13",
"y c #222222",
"u c #232323",
"i c gray14",
"p c gray15",
"a c #272727",
"s c gray18",
"d c None",
/* pixels */
"ddddddddddddddddd07609068ddddddddddddddd",
"ddddddddddddd7;#OXXoOoOXXO@=3ddddddddddd",
"ddddddddddd;#X  .#=8dd6*@.  .O&4dddddddd",
"ddddddddd=O    O6dddddddd2X    X%ddddddd",
"dddddddt%     o9dddddddddd4X     o$ddddd",
"dddddd3O     .3dddddddddddd>      .:dddd",
"ddddd4X      $dddddddddddddd+      .,ddd",
"dddd0o       4dddddddddddddd,       .6dd",
"dddd$       odddddddddddddddwX       +id",
"ddd<        &dddddddddddddddd@        ;d",
"ddiO        1dddddddddddddddd;        oi",
"dd;        .7dddddddddddddddd<         *",
"dd+        oudddddddddddddddd8.         ",
"d9.        OdddddddddddddddddyX         ",
"d,         @dddddddddddddddddaX         ",
"d&         #ddddddddddddddddddo         ",
"d+         %dddddddddddddddddd@         ",
"ro         :dddddddddddddddddd%         ",
"7X         <dddddddddddddddddd*         ",
"uX         <dddddddddddddddddd$         ",
"eX         <dddddddddddddddddd&         ",
"uX         ,dddddddddddddddddd*         ",
"5X         ;dddddddddddddddddd$         ",
"s+         %dddddddddddddddddd+         ",
"d@         @ddddddddddddddddddo         ",
"d-         @dddddddddddddddddiX         ",
"d2         odddddddddddddddddtX         ",
"dio        otdddddddddddddddd3.        O",
"dd&        .5dddddddddddddddd,        .4",
"dd6.        4dddddddddddddddd;        #d",
"ddd$        *dddddddddddddddd@       .3d",
"ddd9o       Odddddddddddddddw.       %dd",
"dddd1.      .7dddddddddddddd:       @ddd",
"ddddd;       &dddddddddddddpO      O9ddd",
"dddddd*.     .6dddddddddddd-      O7dddd",
"ddddddd*o     O7dddddddddd:.    .#dddddd",
"ddddddddd&X    X,dddddddd:.   .+;ddddddd",
"dddddddddd5&O.  .$>9dd6*O   X@;ddddddddd",
"ddddddddddddd2;#OXXOooo.o+&;4ddddddddddd",
"ddddddddddddddddd86qqw45qddddddddddddddd"
};
