/* XPM */
static char *result[] = {
/* columns rows colors chars-per-pixel */
"40 40 57 1 ",
"  c black",
". c #010101",
"X c #020202",
"o c gray1",
"O c #040404",
"+ c gray2",
"@ c #060606",
"# c #070707",
"$ c gray3",
"% c #090909",
"& c gray4",
"* c #0B0B0B",
"= c #0C0C0C",
"- c gray5",
"; c #0E0E0E",
": c gray6",
"> c #101010",
", c #111111",
"< c gray7",
"1 c #131313",
"2 c gray8",
"3 c #151515",
"4 c #161616",
"5 c gray9",
"6 c #181818",
"7 c #191919",
"8 c gray10",
"9 c #1B1B1B",
"0 c gray11",
"q c #1D1D1D",
"w c #1E1E1E",
"e c gray12",
"r c #202020",
"t c gray13",
"y c #222222",
"u c #232323",
"i c gray14",
"p c #272727",
"a c #282828",
"s c gray16",
"d c #2A2A2A",
"f c gray17",
"g c #2C2C2C",
"h c #2D2D2D",
"j c gray18",
"k c #2F2F2F",
"l c gray19",
"z c #323232",
"x c #353535",
"c c gray21",
"v c #3A3A3A",
"b c gray24",
"n c #3E3E3E",
"m c gray26",
"M c gray27",
"N c gray28",
"B c None",
/* pixels */
"BBBBBBBBBBBBBBBBBBBBBBBBBBB5:17BBBBBBBBB",
"BBBBBBBBBBBBBBBBBBBBBBBBB:&X .@dBBBBBBBB",
"BBBBBBBBBBBBBBBBBBBBBB4:+     +jBBBBBBBB",
"B7:1>192ipsfr>q<:;=@+X.       @zBBBBBBBB",
"N=.  .X.XoooX.X.              @cBBBBBBBB",
"BB6>;%@@OoXX..XoX             #vBBBBBBBB",
"BBBBBBBBBBBt,@6gh;            $nBBBBBBBB",
"BBBBBBBBBBBBBBBBB8            $mBBBBBBBB",
"BBBBBBBBBBBBBBBBB5            $MBBBBBBBB",
"BBBBBBBBBBBBBBBBB3            +fBBBBBBBB",
"BBBBBBBBBBBBBBBBB1             BBBBBBBBB",
"BBBBBBBBBBBBBBBBB,            .BBBBBBBBB",
"BBBBBBBBBBBBBBBBB:            .BBBBBBBBB",
"BBBBBBBBBBBBBBBBB;            XBBBBBBBBB",
"BBBBBBBBBBBBBBBBB-            oBBBBBBBBB",
"BBBBBBBBBBBBBBBBB*            oBBBBBBBBB",
"BBBBBBBBBBBBBBBBB&            oBBBBBBBBB",
"BBBBBBBBBBBBBBBBB%            OBBBBBBBBB",
"BBBBBBBBBBBBBBBBB$            OBBBBBBBBB",
"BBBBBBBBBBBBBBBBB#            OBBBBBBBBB",
"BBBBBBBBBBBBBBBBB#            +BBBBBBBBB",
"BBBBBBBBBBBBBBBBB@            +BBBBBBBBB",
"BBBBBBBBBBBBBBBBBO            +BBBBBBBBB",
"BBBBBBBBBBBBBBBBBO            @BBBBBBBBB",
"BBBBBBBBBBBBBBBBBo            @BBBBBBBBB",
"BBBBBBBBBBBBBBBBBo            @BBBBBBBBB",
"BBBBBBBBBBBBBBBBBX            @BBBBBBBBB",
"BBBBBBBBBBBBBBBBBX            @BBBBBBBBB",
"BBBBBBBBBBBBBBBBB.            #BBBBBBBBB",
"BBBBBBBBBBBBBBBBB.            #BBBBBBBBB",
"BBBBBBBBBBBBBBBBB.            #BBBBBBBBB",
"BBBBBBBBBBBBBBBBB.            #BBBBBBBBB",
"BBBBBBBBBBBBBBBBB.            #BBBBBBBBB",
"BBBBBBBBBBBBBBBBB.            #BBBBBBBBB",
"BBBBBBBBBBBBBBBBB.            #BBBBBBBBB",
"BBBBBBBBBBBBBBBBB             #BBBBBBBBB",
"BBBBBBBBBBBBBBBBB             #BBBBBBBBB",
"BBBBBBi7-;y0<$*7;.            X32$1w,:tb",
"BBBBB4.X.XOOOo...XoooOOo oOooo. XoooX.Xr",
"BBBBB3O&;19ugf=%<7ushlxaBgckae3&qjy5>*@t"
};
