/* XPM */
static char *result[] = {
/* columns rows colors chars-per-pixel */
"40 40 45 1 ",
"  c black",
". c #010101",
"X c #020202",
"o c gray1",
"O c #040404",
"+ c gray2",
"@ c #060606",
"# c #070707",
"$ c gray3",
"% c #090909",
"& c gray4",
"* c #0B0B0B",
"= c #0C0C0C",
"- c gray5",
"; c #0E0E0E",
": c gray6",
"> c #101010",
", c #111111",
"< c gray7",
"1 c #131313",
"2 c gray8",
"3 c #151515",
"4 c #161616",
"5 c gray9",
"6 c #181818",
"7 c #191919",
"8 c gray10",
"9 c #1B1B1B",
"0 c gray11",
"q c #1D1D1D",
"w c #1E1E1E",
"e c gray12",
"r c #202020",
"t c gray13",
"y c #222222",
"u c #232323",
"i c gray14",
"p c #252525",
"a c gray15",
"s c #2A2A2A",
"d c #2C2C2C",
"f c #2F2F2F",
"g c gray19",
"h c gray23",
"j c None",
/* pixels */
"jjjjjjjjjjjjj91>=21,2;;,56jjjjjjjjjjjjjj",
"jjjjjjjjj<*@oXoOoooX.  ..Xo+%2jjjjjjjjjj",
"jjjjjj<$o  .@-8jjjjq-OX      .o%2jjjjjjj",
"jjjj1$.   #2jjjjjjjjjj3$.       .$ajjjjj",
"jjj2X    -jjjjjjjjjjjjjj:         +5jjjj",
"jj6.    @jjjjjjjjjjjjjjjj%         oqjjj",
"juO     &jjjjjjjjjjjjjjjj7.         #jjj",
"j;      X$<qjjjjjjjjjjjjjsO          4jj",
"j$         X;jjjjjjjjjjjjj+          :jj",
"h#          .7jjjjjjjjjjjj+          =jj",
"j#           >jjjjjjjjjjjd+          =jj",
"j2           >jjjjjjjjjjj8.          ;jj",
"jj$         Otjjjjjjjjjjj-           4jj",
"jjj-O.   .X#2jjjjjjjjjjj8X          @jjj",
"jjjjj<>$%,wjjjjjjjjjjjjg$          X7jjj",
"jjjjjjjjjjjjjjjjjjjjjjj&          X7jjjj",
"jjjjjjjjjjjjjjjjjjjjjj$          O7jjjjj",
"jjjjjjjjjjjjjjjjjjjj5o         .*jjjjjjj",
"jjjjjjjjjjjjjjjjjjj%.        .@,jjjjjjjj",
"jjjjjjjjjjjjjjjjj1%.       X#,jjjjjjjjjj",
"jjjjjjjjjjjjjjjj%.      .o&5jjjjjjjjjjjj",
"jjjjjjjjjjjjjj-O      X%2jjjjjjjjjjjjjjj",
"jjjjjjjjjjjj,@     X%;jjjjjjjjjjjjjjjjjj",
"jjjjjjjjjjq$.   .O-0jjjjjjjjjjjjjjjjjjjj",
"jjjjjjjjj$o  .o&1jjjjjjjjjjjjjjjjjjjjjjj",
"jjjjjjjt%  .@:jjjjjjjjjjjjjjjjjjjjjjjjjj",
"jjjjjj@X .%3jjjjjjjjjjjjjjjjjjjjjjjjjjjj",
"jjjjj- .$3jjjjjjjjjjjjjjjjjjjjjjjjjjq,3j",
"jjjj$ X,jjjjjjjjjjjjjjjjjjjjjjjjjjjj* $j",
"jjj& +1jjjjjjjjjjjjjjjjjjjjjjjjjjjjj& $j",
"jj> @wjjjjjq485601r8jjjjjjjjjjjjjjj,. #j",
"jtXowjj5=@oX......XXoO@&=>226ip02;#.  &j",
"j* -f,+.                   .oooo.     3j",
"iX @@.                               Xqj",
"1     .XX.                           *jj",
"+   @>2j4>-@X                       Oyjj",
".  *jjjjjjjj8=O.                   +ejjj",
"  @jjjjjjjjjjjj<$O.              X*jjjjj",
"$$3jjjjjjjjjjjjjjj<*#oXXX  .XXO#;6jjjjjj",
"jjjjjjjjjjjjjjjjjjjjjj896%O>w9jjjjjjjjjj"
};
