/* XPM */
static char *result[] = {
/* columns rows colors chars-per-pixel */
"40 40 42 1 ",
"  c black",
". c #010101",
"X c #020202",
"o c gray1",
"O c #040404",
"+ c gray2",
"@ c #060606",
"# c #070707",
"$ c gray3",
"% c #090909",
"& c gray4",
"* c #0B0B0B",
"= c #0C0C0C",
"- c gray5",
"; c #0E0E0E",
": c gray6",
"> c #101010",
", c #111111",
"< c gray7",
"1 c #131313",
"2 c gray8",
"3 c #151515",
"4 c #161616",
"5 c gray9",
"6 c #181818",
"7 c #191919",
"8 c gray10",
"9 c #1B1B1B",
"0 c gray11",
"q c #1E1E1E",
"w c gray12",
"e c #202020",
"r c gray13",
"t c #222222",
"y c #232323",
"u c gray14",
"i c #252525",
"p c gray15",
"a c #272727",
"s c #282828",
"d c gray16",
"f c None",
/* pixels */
"ffffffffffffffffw7awty16ffffffffffffffff",
"fffffffffff>&%+OoooXXXXXo@&&>fffffffffff",
"ffffffff<*O. X%><;->=+.     .@*1ffffffff",
"ffffff3#X  X&fffffffff6$       X&fffffff",
"fffff:X   o>ffffffffffff=        #ffffff",
"ffff3X    ,fffffffffffffdO        *fffff",
"fffeo    orffffffffffffff;        .9ffff",
"fff=     X-:fffffffffffffq         -ffff",
"fff+       .O;fffffffffff3.        +ffff",
"ffpo         X8ffffffffff6         +ffff",
"ffpo          *ffffffffff8         ;ffff",
"fff$          =ffffffffff=        Xeffff",
"fff4X        XefffffffffsO        :fffff",
"ffff4+      +4ffffffffff:       .*ffffff",
"ffffff-;*@--fffffffffff1.      X*fffffff",
"ffffffffffffffffffffff;X     .+4ffffffff",
"fffffffffffffffffffff#.    X@>ffffffffff",
"fffffffffffffffffff;O    o$2ffffffffffff",
"fffffffffffffffff-+.   o6iffffffffffffff",
"ffffffffffffff4=o      X==$$=>ffffffffff",
"fffffffffffff$XO$;:%@o.      .X@*fffffff",
"fffffffffffff91fffffff<@         o&fffff",
"ffffffffffffffffffffffff=.         $qfff",
"fffffffffffffffffffffffff>          #fff",
"ffffffffffffffffffffffffff$          :ff",
"ffffffffffffffffffffffffff6.         +ff",
"fffffffuwfffffffffffffffffpo         Xyf",
"fff8-+Xooo$6fffffffffffffffO         .0f",
"ff1o       X7ffffffffffffff+         .7f",
"f9X         #ffffffffffffffo         Xwf",
"f&          offfffffffffffrX         +ff",
"qo          &fffffffffffff>          3ff",
"wo         oqffffffffffffsO         $fff",
"f&      .@;ffffffffffffff;         Oefff",
"f6.     =fffffffffffffff:.        +6ffff",
"ff-     #ffffffffffffff;.       X#ffffff",
"fff&X    @>ffffffffff=+       o&2fffffff",
"ffff3&o.  .@-<6tr<-&O.    .o#=ffffffffff",
"fffffff,-$Oo.XOOoX...Xo+%-3fffffffffffff",
"ffffffffffff450=OO-047ffffffffffffffffff"
};
