/* XPM */
static char *result[] = {
/* columns rows colors chars-per-pixel */
"40 40 40 1 ",
"  c black",
". c #010101",
"X c #020202",
"o c gray1",
"O c #040404",
"+ c gray2",
"@ c #060606",
"# c #070707",
"$ c gray3",
"% c #090909",
"& c gray4",
"* c #0B0B0B",
"= c #0C0C0C",
"- c gray5",
"; c #0E0E0E",
": c gray6",
"> c #101010",
", c #111111",
"< c gray7",
"1 c #131313",
"2 c gray8",
"3 c #151515",
"4 c #161616",
"5 c gray9",
"6 c #181818",
"7 c #191919",
"8 c gray10",
"9 c #1B1B1B",
"0 c #1D1D1D",
"q c gray12",
"w c #202020",
"e c gray13",
"r c #232323",
"t c gray14",
"y c #252525",
"u c #282828",
"i c gray16",
"p c gray18",
"a c #2F2F2F",
"s c None",
/* pixels */
"sssssssssssssssssssssss422222223ssssssss",
"ssssssssssssssssssssss;........X5sssssss",
"sssssssssssssssssssss:.        .4sssssss",
"ssssssssssssssssssss,.         .4sssssss",
"sssssssssssssssssss1.          .4sssssss",
"ssssssssssssssssss7o           .4sssssss",
"sssssssssssssssss9O<*          .4sssssss",
"ssssssssssssssss0O:s>          .4sssssss",
"sssssssssssssssw+=ss:          .4sssssss",
"ssssssssssssssr@:sss:          .3sssssss",
"sssssssssssssi#=ssss:          .,sssssss",
"sssssssssssss%$sssss:          .2sssssss",
"ssssssssssss&#ssssss:          .4sssssss",
"sssssssssss=+sssssss:          .4sssssss",
"ssssssssss;@ysssssss:          .4sssssss",
"sssssssss,+rssssssss:          .4sssssss",
"ssssssss-O0sssssssss:          .4sssssss",
"sssssss:o6ssssssssss:          .4sssssss",
"ssssss>X1sssssssssss:          .4sssssss",
"sssss<o3ssssssssssss:          .4sssssss",
"ssss5o2sssssssssssss:          .4sssssss",
"sss8o>ssssssssssssss:          .4sssssss",
"ss0O=sssssssssssssss:          .4sssssss",
"sq+*ssssssssssssssss:          .5sssssss",
"s#X5w00000000000000q&           :e0000es",
"qo XoooooooooooooooX.           .ooooo$a",
"qo                                    +p",
"qo                                    +p",
"qo                                    +p",
"qo                 XX           X.    +s",
"ssssssssssssssssssss-          .<sssssss",
"ssssssssssssssssssss:          .4sssssss",
"ssssssssssssssssssss:          .4sssssss",
"ssssssssssssssssssss:          .4sssssss",
"ssssssssssssssssssss:          .4sssssss",
"ssssssssssssssssssss:          .4sssssss",
"ssssssssssssssssssss>          .3sssssss",
"ssssssssssssssssssss%           &ussssss",
"sssssssssssss:#o+@o.   . .. ... .+Xo@o#t",
"sssssssssssss++$-17,o#*:322$>3,-$@52=$o0"
};
