/* XPM */
static char *result[] = {
/* columns rows colors chars-per-pixel */
"40 40 39 1 ",
"  c black",
". c #010101",
"X c #020202",
"o c gray1",
"O c #040404",
"+ c gray2",
"@ c #060606",
"# c #070707",
"$ c gray3",
"% c #090909",
"& c gray4",
"* c #0B0B0B",
"= c #0C0C0C",
"- c gray5",
"; c #0E0E0E",
": c gray6",
"> c #101010",
", c #111111",
"< c gray7",
"1 c #131313",
"2 c gray8",
"3 c #151515",
"4 c #161616",
"5 c gray9",
"6 c #181818",
"7 c #191919",
"8 c #1B1B1B",
"9 c gray11",
"0 c #1D1D1D",
"q c #1E1E1E",
"w c gray12",
"e c gray13",
"r c #222222",
"t c #232323",
"y c #252525",
"u c gray15",
"i c #2C2C2C",
"p c #2F2F2F",
"a c None",
/* pixels */
"aaaaaaaaaaaaaaaaaaaaaaaaaaaaaaaaaapaaaaa",
"aaaaaaaaaaaaaaaaaaaaaaaaaaaaaaaaa,@O7aaa",
"aaaaaO##&=;-:74qaaaaaaaaaaaaa<:=O. Oaaaa",
"aaaaa       ...XX+oO#$+$$@oOX.     3aaaa",
"aaaaa                             %aaaaa",
"aaaaa                            @raaaaa",
"aaaaa                           +0aaaaaa",
"aaaaa                         o#aaaaaaaa",
"aaaaa  .X                  .o$1aaaaaaaaa",
"aaaaa  &q:=%++oXX.....ooO#=>aaaaaaaaaaaa",
"aaaaa  :aaaaaaa959547>0aaaaaaaaaaaaaaaaa",
"aaaaa  :aaaaaaaaaaaaaaaaaaaaaaaaaaaaaaaa",
"aaaaa  :aaaaaaaaaaaaaaaaaaaaaaaaaaaaaaaa",
"aaaaa  :aaaaaaaaaaaaaaaaaaaaaaaaaaaaaaaa",
"aaaaa  :aaaaaaaaaaaaaaaaaaaaaaaaaaaaaaaa",
"aaaaa  :aaaaaaaaaaaaaaaaaaaaaaaaaaaaaaaa",
"aaaaa  :aaaaaaaaaaaaaaaaaaaaaaaaaaaaaaaa",
"aaaaa  :aaaaaaaa61;=-#XO**=>6aaaaaaaaaaa",
"aaaaa  :aaaa2*$o.           XO&4aaaaaaaa",
"aaaaa  ;aa=+XXo#=#$%@X.        .+:aaaaaa",
"aaaaa  O&oX%;2aaaaaaaa1@         .@qaaaa",
"aaaaa&+.o*5aaaaaaaaaaaaa%.         +waaa",
"aaaaaaa2aaaaaaaaaaaaaaaaa3.         $aaa",
"aaaaaaaaaaaaaaaaaaaaaaaaaa;          >aa",
"aaaaaaaaaaaaaaaaaaaaaaaaaauX         Oaa",
"aaaaaaaaaaaaaaaaaaaaaaaaaaa$         .6a",
"aaaaaaaaaaaaaaaaaaaaaaaaaaa,          6a",
"aaaaa3<#->aaaaaaaaaaaaaaaaa:          5a",
"aaa;+.   .O;aaaaaaaaaaaaaaa;          3a",
"aa#         >aaaaaaaaaaaaaa>         .1a",
"a=          +aaaaaaaaaaaaaa;         ora",
"yO          Oaaaaaaaaaaaaaa+         ;aa",
"uX          -aaaaaaaaaaaaa0.        Ouaa",
"iO       .o-aaaaaaaaaaaaaa%        o7aaa",
"a*      %5aaaaaaaaaaaaaaa>        o<aaaa",
"aeO     :aaaaaaaaaaaaaaa;.       %taaaaa",
"aa3o    X:aaaaaaaaaaaa,$.     .@,aaaaaaa",
"aaaa-O.   +*4aaaaaa1>@.    .o&,aaaaaaaaa",
"aaaaaa>%@o...X+$$+X.  .XO$;<aaaaaaaaaaaa",
"aaaaaaaaaa33>:>@XX$,::28aaaaaaaaaaaaaaaa"
};
