/* XPM */
static char *result[] = {
/* columns rows colors chars-per-pixel */
"40 40 42 1 ",
"  c black",
". c #010101",
"X c #020202",
"o c gray1",
"O c #040404",
"+ c gray2",
"@ c #060606",
"# c #070707",
"$ c gray3",
"% c #090909",
"& c gray4",
"* c #0B0B0B",
"= c #0C0C0C",
"- c gray5",
"; c #0E0E0E",
": c gray6",
"> c #101010",
", c #111111",
"< c gray7",
"1 c #131313",
"2 c gray8",
"3 c #151515",
"4 c #161616",
"5 c gray9",
"6 c #181818",
"7 c #191919",
"8 c gray10",
"9 c #1B1B1B",
"0 c gray11",
"q c #1D1D1D",
"w c gray12",
"e c #202020",
"r c gray13",
"t c #222222",
"y c #232323",
"u c gray14",
"i c #252525",
"p c gray15",
"a c #282828",
"s c gray16",
"d c #2C2C2C",
"f c None",
/* pixels */
"fffffffffffffffffff66>>53226ffffffffffff",
"fffffffffffffff6-$+X.XXXXX.Xo#*4ffffffff",
"fffffffffffff-@X  .@:51f43$.   X+:ffffff",
"fffffffffff=o    +4ffffffff,o    .$fffff",
"fffffffff*O     *fffffffffff>      #ffff",
"ffffffff:.     *ffffffffffff*       ;fff",
"fffffff>.     +pffffffffff5o        +fff",
"ffffff1.      2fffffffffff#         ouff",
"fffff7X      +fffffffffffq.         otff",
"fffff#       =fffffffffffqX         $fff",
"ffff,        5ffffffffffff-        o8fff",
"fffpo       oyfffffffffffff&o    o&<ffff",
"fff:        @ffffffffffffffff3*=<0ffffff",
"fff+        *fffffffffffffffffffffffffff",
"ff9.        ,fffffffffffffffffffffffffff",
"ff>         5fffffffffffffffffffffffffff",
"ff$        .7fffffffffffffffffffffffffff",
"ffo        X6ffffff7>=&oo*:,5fffffffffff",
"fi.        Odfff;#o.        .o@>8fffffff",
"fr.        opf-O  X+&$OX        X%4fffff",
"fq         .,&..@=fffff2%.        X+ffff",
"f,          . O<fffffffff;O         -fff",
"f+           @qfffffffffff8X         1ff",
"f@          o9fffffffffffff:         otf",
"f1          ,ffffffffffffffto         ,f",
"fw         Xefffffffffffffff*         @f",
"fi.        Offffffffffffffff,         Oy",
"fso        #ffffffffffffffff1         .&",
"ff#        @ffffffffffffffff1         X,",
"ff>        Offffffffffffffff>         Oa",
"ffyo       oufffffffffffffff3         $f",
"fff-       .4fffffffffffffff-         2f",
"fffwo       =fffffffffffffff#        @ff",
"ffff,.      oyfffffffffffffeX       .4ff",
"fffff-       &fffffffffffff*       X,fff",
"ffffff;.      =fffffffffff,.      .%ffff",
"fffffff4#.    .-fffffffff<.     X$ffffff",
"fffffffff;@.    O-5fff4*+    .O*6fffffff",
"fffffffffff1*#oX. Xo+OX .Xo@&<ffffffffff",
"fffffffffffffff84,*4<42259ffffffffffffff"
};
