/* XPM */
static char *result[] = {
/* columns rows colors chars-per-pixel */
"40 40 43 1 ",
"  c black",
". c #010101",
"X c #020202",
"o c gray1",
"O c #040404",
"+ c gray2",
"@ c #060606",
"# c #070707",
"$ c gray3",
"% c #090909",
"& c gray4",
"* c #0B0B0B",
"= c #0C0C0C",
"- c gray5",
"; c #0E0E0E",
": c gray6",
"> c #101010",
", c #111111",
"< c gray7",
"1 c #131313",
"2 c gray8",
"3 c #151515",
"4 c #161616",
"5 c gray9",
"6 c #181818",
"7 c #191919",
"8 c gray10",
"9 c #1B1B1B",
"0 c gray11",
"q c #1D1D1D",
"w c #1E1E1E",
"e c gray12",
"r c #202020",
"t c gray13",
"y c #222222",
"u c #232323",
"i c #252525",
"p c gray15",
"a c #272727",
"s c #282828",
"d c #2C2C2C",
"f c gray20",
"g c None",
/* pixels */
"ggggggggggggq<36187ggggggggggggggggggggg",
"g4 =gggg7;@oX.  ...o@;7gggggggggggggg63g",
"g8 $gg<#X             .@:ggggggggggg6.Os",
"g, $p&.                  o=6ggggggg0+ $g",
"g1 o%.                     X$>8gg<&X  :g",
"g%                           .XoO.   Xqg",
"g$                                   &gg",
"g+                             Xo$O .0gg",
"f@   O*&&*;&@+OX.       .XXO#==2gi+ =ggg",
"to .&gggggggggg022;+X#:<29ggggggg= @dggg",
"yX =gggggggggggggggggggggggggggg; X9gggg",
"8 .yggggggggggggggggggggggggggg= .6ggggg",
"e @ggggggggggggggggggggggggggg% .1gggggg",
"9,5gggggggggggggggggggggggggq# .<ggggggg",
"ggggggggggggggggggggggggggg3X .<gggggggg",
"gggggggggggggggggggggggggg#. .<ggggggggg",
"ggggggggggggggggggggggggr@   ,gggggggggg",
"ggggggggggggggggggggggg$o   ;ggggggggggg",
"gggggggggggggggggggggu$    -gggggggggggg",
"gggggggggggggggggggg-O    %ggggggggggggg",
"ggggggggggggggggggg&.    Orggggggggggggg",
"gggggggggggggggggw#     .5gggggggggggggg",
"gggggggggggggggg7+      *ggggggggggggggg",
"ggggggggggggggg3o      .eggggggggggggggg",
"gggggggggggggg2X       $gggggggggggggggg",
"ggggggggggggg:.        2gggggggggggggggg",
"gggggggggggg,.         egggggggggggggggg",
"ggggggggggg7X         .rgggggggggggggggg",
"ggggggggggrO          +ggggggggggggggggg",
"gggggggggg%           $ggggggggggggggggg",
"ggggggggg6.           Oggggggggggggggggg",
"ggggggggg=            .ggggggggggggggggg",
"gggggggggO            oggggggggggggggggg",
"gggggggg1.            $ggggggggggggggggg",
"gggggggg9X            *ggggggggggggggggg",
"ggggggggg@            3ggggggggggggggggg",
"ggggggggg2           Oaggggggggggggggggg",
"gggggggggg-.        O3gggggggggggggggggg",
"ggggggggggg7#o.XXXO*wggggggggggggggggggg",
"gggggggggggggg1riqgggggggggggggggggggggg"
};
