/* XPM */
static char *result[] = {
/* columns rows colors chars-per-pixel */
"40 40 47 1 ",
"  c black",
". c #010101",
"X c #020202",
"o c gray1",
"O c #040404",
"+ c gray2",
"@ c #060606",
"# c #070707",
"$ c gray3",
"% c #090909",
"& c gray4",
"* c #0B0B0B",
"= c #0C0C0C",
"- c gray5",
"; c #0E0E0E",
": c gray6",
"> c #101010",
", c #111111",
"< c gray7",
"1 c #131313",
"2 c gray8",
"3 c #151515",
"4 c #161616",
"5 c gray9",
"6 c #181818",
"7 c #191919",
"8 c gray10",
"9 c #1B1B1B",
"0 c gray11",
"q c #1D1D1D",
"w c #1E1E1E",
"e c gray12",
"r c #202020",
"t c gray13",
"y c #222222",
"u c #232323",
"i c gray14",
"p c #252525",
"a c gray15",
"s c #272727",
"d c #282828",
"f c gray16",
"g c #2A2A2A",
"h c gray20",
"j c gray22",
"k c #393939",
"l c None",
/* pixels */
"llllllllllllllll885w58540lllllllllllllll",
"lllllllllll71=@OXXOOooOoXo+=>5llllllllll",
"lllllllll-+X  .O=,qlllu1:&O  X+,llllllll",
"lllllll:+.   .:llllllllllll-o  .@wllllll",
"lllll0#     &lllllllllllllllq@   X1lllll",
"llllrO     $lllllllllllllllllto   X5llll",
"llll#      4llllllllllllllllll>    #llll",
"lll<      .dllllllllllllllllllq.   .7lll",
"lll@      .sllllllllllllllllllgX    $lll",
"llwX       1llllllllllllllllllho    ,lll",
"ll=        +dllllllllllllllllltX   Xqlll",
"ll2.        $rllllllllllllllll5.   %llll",
"llpX         +,lllllllllllllll&   Xrllll",
"lll#          .$<llllllllllll7.  .,lllll",
"lll4            .+>elllllllly+  X*llllll",
"llll$              o#-5llll7@ .#8lllllll",
"llllr@                X#*<-o.@:lllllllll",
"llllll+                  .  %tllllllllll",
"lllllll=o                   X+;lllllllll",
"lllllllll>+                   .o-lllllll",
"llllllllla-  X                   +,lllll",
"lllllll1$O X&1>$o.                .-llll",
"lllll9%X  @,lllll:%O.               *lll",
"llll&X   %llllllllll1&+.             ,ll",
"lll%    @flllllllllllll:@.           oil",
"ll;    .8llllllllllllllll:@           <l",
"l5.    #lllllllllllllllllll*          $l",
"l#     >llllllllllllllllllll;         @j",
"w.     3lllllllllllllllllllll@        @k",
":     .1lllllllllllllllllllll2        +l",
"*     .4llllllllllllllllllllle.       =l",
"0      2lllllllllllllllllllllsX      .8l",
"iO     #lllllllllllllllllllll0       #ll",
"l1      5llllllllllllllllllll;      X6ll",
"ll&     Oellllllllllllllllll9X     .3lll",
"lll&.    O5llllllllllllllll2o     @2llll",
"llll*O    X*8llllllllllll7&X    o=llllll",
"llllll;@X   X#*,llllll2=@X   .@>llllllll",
"llllllll8-%OX...XoooXoX..o+%>4llllllllll",
"llllllllllll43,->3,32=,16lllllllllllllll"
};
