/* XPM */
static char *result[] = {
/* columns rows colors chars-per-pixel */
"40 40 42 1 ",
"  c black",
". c #010101",
"X c #020202",
"o c gray1",
"O c #040404",
"+ c gray2",
"@ c #060606",
"# c #070707",
"$ c gray3",
"% c #090909",
"& c gray4",
"* c #0B0B0B",
"= c #0C0C0C",
"- c gray5",
"; c #0E0E0E",
": c gray6",
"> c #101010",
", c #111111",
"< c gray7",
"1 c #131313",
"2 c gray8",
"3 c #151515",
"4 c #161616",
"5 c gray9",
"6 c #181818",
"7 c #191919",
"8 c gray10",
"9 c #1B1B1B",
"0 c gray11",
"q c #1D1D1D",
"w c #1E1E1E",
"e c gray12",
"r c #202020",
"t c gray13",
"y c #222222",
"u c gray14",
"i c #272727",
"p c #282828",
"a c gray16",
"s c gray17",
"d c #2C2C2C",
"f c None",
/* pixels */
"fffffffffffffff443#o=79effffffffffffffff",
"ffffffffff5>&+o..XXXXX.XO#:2ffffffffffff",
"fffffff3&OX    +;><f,;#X   .O&3fffffffff",
"fffff5%X     X&ffffffff0+     .&3fffffff",
"ffff>o      .2ffffffffffw+      X,ffffff",
"fff:.       :ffffffffffffq.      X1fffff",
"ff,        oufffffffffffff$       .3ffff",
"feX        &ffffffffffffff7        Oyfff",
"f-         >ffffffffffffffiO        =fff",
"pO        .9fffffffffffffff%        .7ff",
"9         Xdfffffffffffffff>         -ff",
"r         .pfffffffffffffff6         @ff",
"r         .8fffffffffffffff5.        Xqf",
"e          <fffffffffffffff7.         2f",
"uo         ;fffffffffffffff4          ,f",
"f=         Offfffffffffffff;          &f",
"fe.         <fffffffffffffto          #f",
"ff:         o0ffffffffffff%           Xf",
"fff;.        o;fffffffff2O.O.         .f",
"ffff4o        .+,0fff<;$.X:6.         Of",
"ffffff-@.        XoOX. X$8ff+         $f",
"ffffffff2;#+oXX  XXo@%>fffff#         *f",
"ffffffffffffff4#@3ffffffffff+         <f",
"ffffffffffffffffffffffffffffo         2f",
"fffffffffffffffffffffffffffsO        .qf",
"fffffffffffffffffffffffffff9X        ouf",
"fffffffffffffffffffffffffff6         &ff",
"fffff5;434fffffffffffffffff2         4ff",
"fff,#X. .X@2fffffffffffffff%        Oaff",
"ff*.       X4fffffffffffffaO        ;fff",
"f2          @fffffffffffff4        Oyfff",
"f#          Offfffffffffff&        1ffff",
"f@          =ffffffffffffqX       *fffff",
"f%         @uffffffffffff$       #ffffff",
"f<       O:fffffffffffff-       #rffffff",
"ff$      *fffffffffffff;.     .offffffff",
"ffr+     .-fffffffffff=.    .+>fffffffff",
"ffff;o    .#<ffffff2>+    .+>fffffffffff",
"ffffff;#o.   XO#&@o.  .X@*3fffffffffffff",
"fffffffff5<:%o    X$-=29ffffffffffffffff"
};
