/* XPM */
static char *result[] = {
/* columns rows colors chars-per-pixel */
"5 5 7 1 ",
"  c #282828",
". c gray62",
"X c gray63",
"o c #AFAFAF",
"O c #C5C5C5",
"+ c #EFEFEF",
"@ c None",
/* pixels */
"@@@@@",
"@@X@@",
"@.+.@",
"@oOo@",
" @@@ "
};
