/* XPM */
static char *result[] = {
/* columns rows colors chars-per-pixel */
"10 10 17 1 ",
"  c black",
". c #272727",
"X c gray23",
"o c #3C3C3C",
"O c gray24",
"+ c #3E3E3E",
"@ c #5B5B5B",
"# c #717171",
"$ c #8D8D8D",
"% c gray56",
"& c gray75",
"* c #D2D2D2",
"= c gainsboro",
"- c gray87",
"; c #FBFBFB",
": c white",
"> c None",
/* pixels */
">>>>>>>>>>",
">>>>..>>>>",
">>>>%%>>>>",
">>>o--o>>>",
">>>$::$>>>",
">>X=::=X>>",
">>$:;;:$>>",
">+*&##&*+>",
">O@>>>>@O>",
" >>>>>>>> "
};
