/* XPM */
static char *result[] = {
/* columns rows colors chars-per-pixel */
"10 10 2 1 ",
"  c black",
". c None",
/* pixels */
"..........",
"....  ....",
"..... ....",
".....  ...",
".....  ...",
".....   ..",
".....   ..",
".....    .",
"....     .",
"    ..    "
};
