/* XPM */
static char *result[] = {
/* columns rows colors chars-per-pixel */
"10 10 21 1 ",
"  c #987B2D",
". c #AC8C33",
"X c #B49236",
"o c #B79436",
"O c #B79537",
"+ c #B89537",
"@ c #B99637",
"# c #CAA43C",
"$ c #D0A93E",
"% c #D5AD40",
"& c #DCB342",
"* c #ECC046",
"= c #F2C548",
"- c #F7C94A",
"; c #F9CA4A",
": c #F9CA4B",
"> c #FACB4B",
", c #FBCB4B",
"< c #FBCC4B",
"1 c #FCCC4B",
"2 c None",
/* pixels */
"2222222222",
"222 @X2222",
"22#=,>*o22",
"2.->;;<*22",
"2$1;>>:>X2",
"2%1>>>;,@2",
"2O>>>;>= 2",
"22&>11-#22",
"222+%$.222",
"2222222222"
};
