/* XPM */
static char *slash1660749707[] = {
/* columns rows colors chars-per-pixel */
"40 40 2 1 ",
"  c None",
". c black",
/* pixels */
"                                        ",
"                               ......   ",
"                              .......   ",
"                             .......    ",
"                            .......     ",
"                            .......     ",
"                           .......      ",
"                          .......       ",
"                         .......        ",
"                        ........        ",
"                        .......         ",
"                       .......          ",
"                      .......           ",
"                     .......            ",
"                     .......            ",
"                    .......             ",
"                   .......              ",
"                  .......               ",
"                  .......               ",
"                 .......                ",
"                .......                 ",
"               .......                  ",
"               .......                  ",
"              .......                   ",
"             .......                    ",
"            .......                     ",
"            .......                     ",
"           .......                      ",
"          .......                       ",
"         .......                        ",
"        ........                        ",
"        .......                         ",
"       .......                          ",
"      .......                           ",
"     .......                            ",
"     .......                            ",
"    .......                             ",
"   .......                              ",
"   ......                               ",
"                                        "
};
